<svg xmlns="http://www.w3.org/2000/svg" width="12" height="15" viewBox="0 0 12 15">
    <path fill="#BFBFBF" fill-rule="evenodd" d="M6.828 5.121l1.415-1.414L7.536 3 6.12 4.414 4.707 3 4 3.707l1.414 1.414L4 6.536l.707.707 1.414-1.415 1.415 1.415.707-.707L6.828 5.12zM10.912 0c.144 0 .282.028.413.084.206.082.37.21.492.385A.994.994 0 0 1 12 1.05v12.084c0 .213-.06.407-.183.582a1.057 1.057 0 0 1-.492.384c-.119.05-.256.075-.413.075-.3 0-.559-.1-.778-.3L6 9.9l-4.134 3.975c-.225.206-.485.31-.778.31-.144 0-.282-.029-.413-.085a1.057 1.057 0 0 1-.492-.384.994.994 0 0 1-.183-.582V1.05C0 .837.06.644.183.469.305.294.469.166.675.084.806.028.944 0 1.088 0h9.824z"/>
</svg>
